PathFileType	4	(X/Y/Z)	D:\TRACE\spotREDO_2-26-24\spot_Both_Motion_3_4-platform.trc
DataRate	CameraRate	NumFrames	NumMarkers	Units	OrigDataRate	OrigDataStartFrame	OrigNumFrames
100.00	100.00	      48	5	mm	100.00	1	      7000
Frame#	Time	Left_Front			Right_Front			Left_Aft			Right_Aft			Post			
		X1	Y1	Z1	X2	Y2	Z2	X3	Y3	Z3	X4	Y4	Z4	X5	Y5	Z5	

1	0.000	-736.42877	99.69649	-539.16595	678.36359	94.22311	-455.06287	-807.21198	-108.28351	661.75842	762.35522	-101.79835	666.74445	-42.24231	787.92303	-828.34998	
2	0.010	-736.44153	99.73096	-539.18585	678.43658	94.10085	-455.06116	-807.21796	-108.21413	661.76428	762.40027	-101.81766	666.74030	-42.24896	788.00055	-828.40479	
3	0.020	-736.45746	99.71007	-539.17194	678.48157	94.07876	-455.01465	-807.20068	-108.23520	661.74286	762.40210	-101.78455	666.74261	-42.24004	787.96295	-828.45398	
4	0.030	-736.42267	99.72126	-539.16394	678.42938	94.12638	-455.01004	-807.18420	-108.15504	661.77045	762.38397	-101.83401	666.78845	-42.23967	787.97168	-828.43536	
5	0.040	-736.44324	99.71082	-539.18256	678.43665	94.10310	-455.05029	-807.22498	-108.20561	661.77081	762.44104	-101.90926	666.78699	-42.22101	787.89771	-828.40735	
6	0.050	-736.38763	99.63722	-539.15210	678.45483	94.06444	-455.08948	-807.19794	-108.18210	661.73730	762.42682	-101.84154	666.77759	-42.18391	787.87341	-828.33929	
7	0.060	-736.42889	99.64820	-539.18311	678.34991	94.21151	-455.05548	-807.26141	-108.08379	661.71692	762.39923	-101.79915	666.75378	-42.22589	787.87286	-828.31812	
8	0.070	-736.39203	99.61598	-539.18164	678.39197	94.18783	-455.00821	-807.21362	-108.01257	661.72961	762.39563	-101.78537	666.77051	-42.20146	787.86755	-828.28442	
9	0.080	-736.38489	99.66771	-539.13794	678.34399	94.23158	-454.96014	-807.26300	-108.03793	661.69592	762.37952	-101.84281	666.78986	-42.20190	787.87054	-828.28802	
10	0.090	-736.43585	99.67461	-539.16559	678.44586	94.09536	-455.04462	-807.26215	-108.08224	661.68817	762.39539	-101.80007	666.78046	-42.19003	787.89191	-828.28009	
11	0.100	-736.40753	99.64848	-539.15527	678.46033	94.09067	-455.02176	-807.27142	-108.04965	661.67792	762.43060	-101.83329	666.78119	-42.23453	787.89380	-828.27362	
12	0.110	-736.39069	99.67462	-539.16638	678.47015	94.08894	-455.01315	-807.28558	-108.03870	661.74005	762.39520	-101.82096	666.78259	-42.21739	787.96033	-828.32721	
13	0.120	-736.46558	99.72707	-539.14612	678.39581	94.22039	-455.00330	-807.29767	-108.05846	661.75806	762.41321	-101.79801	666.73334	-42.27190	787.96381	-828.31873	
14	0.130	-736.41150	99.78863	-539.15521	678.44873	94.17101	-454.98129	-807.26514	-107.74959	661.73102	762.38007	-101.78799	666.72955	-42.20031	787.97400	-828.35205	
15	0.140	-736.43469	99.72288	-539.15149	678.43427	94.16973	-455.00525	-807.24225	-107.49134	661.87714	762.29242	-101.62151	666.68372	-42.28079	787.97675	-828.33893	
16	0.150	-736.42999	99.79070	-539.17218	678.48138	94.07978	-455.04010	-807.27704	-107.29274	661.70398	762.40594	-101.84458	666.76770	-42.25624	787.90924	-828.38385	
17	0.160	-736.50220	99.71542	-539.18665	678.45593	94.06320	-455.03113	-807.22675	-107.96317	661.79291	762.30054	-101.71712	666.73517	-42.34134	787.98096	-828.26178	
18	0.170	-736.39789	99.68163	-539.17963	678.48175	94.02839	-455.09610	-807.09180	-108.23669	661.68286	762.39783	-101.81231	666.73340	-42.22531	787.89545	-828.31519	
19	0.180	-736.40314	99.71935	-539.12708	678.34027	94.24258	-455.09488	-807.13770	-108.07463	661.58264	762.43958	-101.83376	666.74554	-42.28331	787.94983	-828.33093	
20	0.190	-736.45465	99.71422	-539.18542	678.48828	94.06848	-455.01672	-807.10596	-108.15317	661.60797	762.40643	-101.84821	666.74017	-42.20420	787.90924	-828.30084	
21	0.200	-736.37634	99.66435	-539.16101	678.34552	94.22330	-455.01147	-807.04401	-108.17435	661.72278	762.33136	-101.80790	666.74152	-42.22846	787.89984	-828.45697	
22	0.210	-736.39948	99.66411	-539.14642	678.42780	94.07161	-455.04715	-807.05334	-108.04984	661.77795	762.40717	-101.86131	666.78168	-42.15041	787.91718	-828.39972	
23	0.220	-736.38385	99.68150	-539.15411	678.37299	94.20580	-455.03500	-807.37329	-108.00701	661.88281	762.40924	-101.83358	666.78430	-42.25176	787.95062	-828.39722	
24	0.230	-736.36658	99.70995	-539.12640	678.37305	94.22977	-455.00217	-807.34924	-107.88288	661.90930	762.41730	-101.89658	666.79816	-42.22223	787.89374	-828.36053	
25	0.240	-736.42377	99.67838	-539.13202	678.48151	94.04249	-455.05914	-807.23663	-108.02460	661.80457	762.43591	-101.94154	666.81873	-42.14219	787.88269	-828.32019	
26	0.250	-736.43811	99.68361	-539.16846	678.48828	94.02956	-455.04855	-807.23602	-108.05259	661.82031	762.39337	-101.86880	666.76495	-42.22877	787.87469	-828.29883	
27	0.260	-736.36938	99.62809	-539.14978	678.38928	94.18024	-455.08957	-807.17194	-107.94247	661.85944	762.38257	-101.81440	666.75903	-42.18598	787.87830	-828.28107	
28	0.270	-736.40332	99.69984	-539.15210	678.45868	94.06463	-455.08206	-807.19550	-107.99297	661.84875	762.40979	-101.86089	666.77081	-42.21441	787.92108	-828.28833	
29	0.280	-736.36261	99.69568	-539.13934	678.37476	94.21543	-455.07385	-807.17841	-108.04256	661.82434	762.39026	-101.84561	666.78418	-42.17513	787.89545	-828.33264	
30	0.290	-736.40491	99.63358	-539.13965	678.39124	94.17381	-455.10696	-807.20624	-108.04615	661.82367	762.42792	-101.88770	666.79517	-42.18630	787.85333	-828.36133	
31	0.300	-736.42377	99.66750	-539.12378	678.41235	94.18667	-455.06720	-807.19000	-108.08195	661.77649	762.42407	-101.87127	666.77136	-42.21247	787.89343	-828.44397	
32	0.310	-736.44574	99.68000	-539.09625	678.44702	94.04259	-455.10229	-807.18750	-108.06331	661.78113	762.37085	-101.82981	666.75580	-42.24501	787.91492	-828.45215	
33	0.320	-736.46661	99.71161	-539.05304	678.37665	94.19717	-455.02136	-807.20996	-107.99348	661.84106	762.42285	-101.88383	666.79242	-42.23066	787.97803	-828.48438	
34	0.330	-736.49310	99.75136	-539.02789	678.36194	94.22736	-455.02609	-807.19275	-107.98824	661.79730	762.42456	-101.86719	666.79169	-42.19920	787.96979	-828.41907	
35	0.340	-736.51740	99.74609	-539.04413	678.36365	94.23721	-455.02737	-807.24646	-108.06154	661.81055	762.36450	-101.84446	666.77014	-42.20986	787.90765	-828.43481	
36	0.350	-736.52100	99.68836	-539.09259	678.49207	94.03556	-455.05466	-807.18372	-108.05790	661.77997	762.40729	-101.85702	666.78351	-42.23498	787.89081	-828.37280	
37	0.360	-736.51440	99.70043	-539.07056	678.38672	94.18456	-455.08963	-807.22821	-108.06662	661.81219	762.39874	-101.84030	666.75214	-42.25195	787.90350	-828.27209	
38	0.370	-736.44153	99.65369	-539.06927	678.45013	94.06047	-455.08435	-807.18054	-108.08497	661.80206	762.39209	-101.76881	666.72797	-42.20198	787.90326	-828.31055	
39	0.380	-736.50653	99.77151	-539.08978	678.38800	94.22793	-455.06470	-807.19135	-107.99890	661.84698	762.41040	-101.79247	666.72717	-42.18187	787.87897	-828.32922	
40	0.390	-736.46844	99.75109	-539.08832	678.45691	94.06053	-455.08893	-807.18671	-108.00422	661.80975	762.39856	-101.81788	666.77545	-42.16039	787.86987	-828.34125	
41	0.400	-736.50836	99.71154	-539.09186	678.46924	94.04300	-455.09528	-807.18829	-108.06313	661.77979	762.41187	-101.87316	666.77484	-42.23907	787.87408	-828.33563	
42	0.410	-736.50500	99.72264	-539.09674	678.38489	94.19582	-455.01575	-807.21344	-108.14800	661.81683	762.40942	-101.89886	666.79633	-42.22855	787.86920	-828.37079	
43	0.420	-736.48926	99.75104	-539.09320	678.46405	94.09225	-455.03732	-807.23340	-108.13995	661.83228	762.40930	-101.85356	666.76337	-42.22593	787.89813	-828.40894	
44	0.430	-736.49506	99.76358	-539.08716	678.42139	94.07021	-455.09167	-807.22119	-108.11376	661.81287	762.40784	-101.85035	666.77301	-42.17646	787.90710	-828.44312	
45	0.440	-736.50647	99.77483	-539.08801	678.36200	94.24104	-454.96915	-807.21808	-108.08295	661.81494	762.40356	-101.82156	666.79541	-42.20286	787.90649	-828.45746	
46	0.450	-736.46210	99.72299	-539.10199	678.40100	94.17722	-455.02103	-807.19800	-108.07940	661.87573	762.42798	-101.90277	666.79865	-42.18085	787.86841	-828.42932	
47	0.460	-736.55945	99.71403	-539.10107	678.36694	94.16907	-455.09299	-807.20880	-108.21008	661.80670	762.39709	-101.84117	666.78174	-42.25645	787.87622	-828.39032	
48	0.470	-736.49670	99.75391	-539.12701	678.41278	94.16781	-455.05597	-807.20001	-108.13313	661.79498	762.46582	-101.86977	666.76917	-42.17625	787.82825	-828.40619	
